<?xml version="1.0" encoding="utf-8"?>
<!-- Generator: Adobe Illustrator 27.6.1, SVG Export Plug-In . SVG Version: 6.00 Build 0)  -->
<svg version="1.1" id="Layer_1" xmlns="http://www.w3.org/2000/svg" xmlns:xlink="http://www.w3.org/1999/xlink" x="0px" y="0px"
	 viewBox="0 0 166.43 155.14" style="enable-background:new 0 0 166.43 155.14;" xml:space="preserve">
<style type="text/css">
	.st0{fill:none;stroke:#FFFFFF;stroke-miterlimit:10;}
</style>
<path class="st0" d="M85.48,36.43c4.89-2.64,11.21-3.05,15.89-0.06c5.72,3.66,7.52,12.25,3.74,17.9c-0.79,1.18-1.83,2.4-1.67,3.81
	c0.07,0.65,0.4,1.24,0.75,1.8c7.13,11.33,23.95,13.27,31.24,24.49c4.06,6.24,4.32,14.13,4.46,21.57c0.04,2.42,0.03,5.02-1.4,6.97
	c-1.39,1.9-3.85,2.72-6.2,2.84c-5.8,0.28-11.15-3.11-15.45-7.02c-4.29-3.91-8.04-8.51-12.95-11.61c1.7,11.22-7.51,22.89-18.82,23.84
	c-2.39,0.2-4.86-0.03-7.04-1.03c-4.5-2.07-7.04-7.41-6.39-12.32c0.65-4.91,4.15-9.19,8.59-11.39c0.99-0.49,2.13-0.99,2.55-2.01
	c0.3-0.72,0.16-1.54-0.02-2.3c-1.79-7.55-7.7-14-15.07-16.44c-4.54-1.5-10.45-2.35-11.86-6.92c-1.36-4.4,3.45-8.83,8.05-8.61
	s8.46,3.57,11.24,7.24C73.54,53.81,71.31,43.51,85.48,36.43z"/>
</svg>
