<?xml version="1.0" encoding="utf-8"?>
<!-- Generator: Adobe Illustrator 27.6.1, SVG Export Plug-In . SVG Version: 6.00 Build 0)  -->
<svg version="1.1" id="Layer_1" xmlns="http://www.w3.org/2000/svg" xmlns:xlink="http://www.w3.org/1999/xlink" x="0px" y="0px"
	 viewBox="0 0 166.43 155.14" style="enable-background:new 0 0 166.43 155.14;" xml:space="preserve">
<style type="text/css">
	.st0{fill:none;stroke:#FFFFFF;stroke-miterlimit:10;}
</style>
<path class="st0" d="M114.29,38.9c0.94,4.14-0.67,8.4-0.83,12.64c-0.5,13.52,12.83,22.69,22.94,31.69c1.84,1.64,3.69,3.46,4.45,5.8
	c1.64,5-2.22,10.19-6.6,13.11c-8.17,5.44-19.06,6.54-28.15,2.82c-9.09-3.71-16.1-12.12-18.12-21.73c-0.33-1.55-0.73-3.38-2.19-3.99
	c-1.19-0.49-2.53,0.1-3.66,0.72c-10.8,5.96-19.31,15.95-23.47,27.57c-0.46,1.27-0.94,2.67-2.08,3.4c-1.75,1.11-4.03,0.1-5.79-0.99
	c-13.48-8.38-23.46-22.21-27.17-37.64c-0.88-3.67-1.36-7.76,0.53-11.02c2.18-3.76,6.79-5.25,11-6.36c6.19-1.63,12.6-3.14,18.93-2.24
	s12.66,4.71,14.71,10.77c1.85-11.1,0.6-22.7-3.56-33.17c9.63-3.5,17.73,9.04,22.77,14.67C91.33,34.93,110.28,21.21,114.29,38.9z"/>
</svg>
