<?xml version="1.0" encoding="utf-8"?>
<!-- Generator: Adobe Illustrator 27.6.1, SVG Export Plug-In . SVG Version: 6.00 Build 0)  -->
<svg version="1.1" id="Layer_1" xmlns="http://www.w3.org/2000/svg" xmlns:xlink="http://www.w3.org/1999/xlink" x="0px" y="0px"
	 viewBox="0 0 166.43 155.14" style="enable-background:new 0 0 166.43 155.14;" xml:space="preserve">
<style type="text/css">
	.st0{fill:none;stroke:#FFFFFF;stroke-miterlimit:10;}
</style>
<path class="st0" d="M70.79,36.66c4.43-0.16,8.81,2.72,10.3,6.79c1.14,3.11,0.77,6.82,2.88,9.4c2.62,3.22,7.8,3.05,11.7,1.46
	c3.9-1.58,7.34-4.25,11.45-5.22c8.48-2.01,17.29,4.18,20.61,12.03s2.34,16.78,0.42,25.06c-0.44,1.88-0.96,3.84-2.26,5.3
	c-2.74,3.08-7.79,2.79-11.69,1.31c-3.9-1.47-7.53-3.88-11.7-4.29c-8.34-0.82-15.2,6.66-18.17,14.28
	c-2.17,5.56-3.72,12.28-9.24,14.84c-6.34,2.94-14.14-2.15-16.36-8.63c-2.22-6.47-0.45-13.54,1.56-20.08
	c0.66-2.15,1.33-4.58,0.24-6.56c-0.7-1.28-2.02-2.12-3.31-2.85c-8.6-4.92-19.71-9.66-20.68-19.31c4.93-5.72,17.11,0.1,21.1-6.28
	C61.69,47.42,59.16,37.09,70.79,36.66z"/>
</svg>
