<?xml version="1.0" encoding="utf-8"?>
<!-- Generator: Adobe Illustrator 27.6.1, SVG Export Plug-In . SVG Version: 6.00 Build 0)  -->
<svg version="1.1" id="Layer_1" xmlns="http://www.w3.org/2000/svg" xmlns:xlink="http://www.w3.org/1999/xlink" x="0px" y="0px"
	 viewBox="0 0 166.43 155.14" style="enable-background:new 0 0 166.43 155.14;" xml:space="preserve">
<style type="text/css">
	.st0{fill:none;stroke:#FFFFFF;stroke-miterlimit:10;}
</style>
<path class="st0" d="M141.64,61.11c3.16,1.56,2.2,6.47-0.12,9.11c-2.33,2.64-5.67,4.77-6.37,8.22c-1.38,6.78,8.16,10.97,9.47,17.77
	c0.28,1.45,0.16,2.96-0.15,4.41c-1.83,8.76-10.58,15.26-19.53,15.4s-17.5-5.48-21.82-13.32c-0.98-1.78-1.9-3.8-3.74-4.67
	c-3.64-1.72-7.27,2.17-9.62,5.44c-7.26,10.13-17.62,19.32-30.06,20.05c-16.41,0.97-5.34-22.03-10.42-37.67
	C44.07,69.8,21.33,59.14,33.14,47.08S67,33.32,78.31,45.85c3.36,3.72,5.6,8.3,8.71,12.23c3.11,3.93,7.57,7.34,12.57,7.16
	c3.52-0.12,6.7-2.21,10.13-2.4c4.33-0.24,6.79,1.99,10.78,2.38C127.01,65.86,135.41,58.04,141.64,61.11z"/>
</svg>
