<?xml version="1.0" encoding="utf-8"?>
<!-- Generator: Adobe Illustrator 27.6.1, SVG Export Plug-In . SVG Version: 6.00 Build 0)  -->
<svg version="1.1" id="Layer_1" xmlns="http://www.w3.org/2000/svg" xmlns:xlink="http://www.w3.org/1999/xlink" x="0px" y="0px"
	 viewBox="0 0 166.43 155.14" style="enable-background:new 0 0 166.43 155.14;" xml:space="preserve">
<style type="text/css">
	.st0{fill:none;stroke:#FFFFFF;stroke-miterlimit:10;}
</style>
<path class="st0" d="M113.25,51.32c0.18,5.57-5.85,9.24-7.74,14.48c-2.04,5.63,1.18,11.93,5.63,15.94
	c4.44,4.01,10.03,6.51,14.78,10.15c2.09,1.61,4.06,3.49,5.2,5.88c2.97,6.25-0.54,13.51-3.97,19.52c-1.57,2.76-3.5,5.78-6.6,6.46
	c-2.02,0.45-4.12-0.24-6-1.13c-12.91-6.12-18.84-20.9-23.63-34.37c-12.73,2.73-15.41,23.47-28.32,25.11
	c-6.88,0.87-12.91-4.46-17.3-9.84c-2.02-2.47-4.01-5.29-4.02-8.48c-0.01-3.92,2.91-7.15,5.65-9.95c3.08-3.15,6.26-6.36,10.26-8.19
	c4.01-1.83,9.09-1.98,12.52,0.78c2.18,1.76,4.54,4.76,7.04,3.5c0.81-0.41,1.36-1.21,1.75-2.03c2.82-5.87-0.77-13.21-6.21-16.79
	c-0.98-0.64-2.08-1.29-2.49-2.38c-0.64-1.72,0.72-3.48,1.99-4.8c8.44-8.83,11.35-3.14,17.24,3.38c4.67-3.59,4.62-11.29,11.1-13.72
	C105.05,42.98,113.05,45.07,113.25,51.32z"/>
</svg>
